<?xml version="1.0" encoding="UTF-8"?>
<svg width="252px" height="80px" viewBox="0 0 252 80" version="1.1" xmlns="http://www.w3.org/2000/svg" xmlns:xlink="http://www.w3.org/1999/xlink">
    <!-- Generator: Sketch 51.3 (57544) - http://www.bohemiancoding.com/sketch -->
    <title>logo+diagonal</title>
    <desc>Created with Sketch.</desc>
    <defs>
        <polygon id="path-1" points="0.32754 0.0679672 5.694956 0.0679672 5.694956 6.784 0.32754 6.784"></polygon>
        <polygon id="path-3" points="0 47.3078 158.960992 47.3078 158.960992 0 0 0"></polygon>
    </defs>
    <g id="desktop" stroke="none" stroke-width="1" fill="none" fill-rule="evenodd">
        <g id="home-desktop" transform="translate(-50.000000, -40.000000)">
            <g id="logo+diagonal" transform="translate(50.000000, 40.000000)">
                <g id="logo" fill="#34447C">
                    <polygon id="Rectangle-2" points="51.0419936 0 252 0 205.697959 80 0 80"></polygon>
                </g>
                <g id="ewu-logo" transform="translate(47.000000, 16.000000)">
                    <g id="Group-3" transform="translate(69.112000, 40.523800)">
                        <mask id="mask-2" fill="white">
                            <use xlink:href="#path-1"></use>
                        </mask>
                        <g id="Clip-2"></g>
                        <path d="M0.32754,4.0582312 L0.32754,0.0679672 L2.034988,0.0679672 L2.034988,4.0768872 C2.034988,4.8693432 2.421676,5.2467032 3.006372,5.2467032 C3.60082,5.2467032 3.977756,4.8879992 3.977756,4.1052952 L3.977756,0.0679672 L5.694956,0.0679672 L5.694956,4.0298232 C5.694956,5.9446072 4.610364,6.7841272 2.997044,6.7841272 C1.384148,6.7841272 0.32754,5.9352792 0.32754,4.0582312" id="Fill-1" fill="#FEFEFE" mask="url(#mask-2)"></path>
                    </g>
                    <polygon id="Fill-4" fill="#FEFEFE" points="78.696308 40.5917248 80.290548 40.5917248 82.48814 43.9120688 82.48814 40.5917248 84.157852 40.5917248 84.157852 47.1946768 82.648412 47.1946768 80.36602 43.7327168 80.36602 47.1946768 78.696308 47.1946768"></polygon>
                    <mask id="mask-4" fill="white">
                        <use xlink:href="#path-3"></use>
                    </mask>
                    <g id="Clip-7"></g>
                    <polygon id="Fill-6" fill="#FEFEFE" mask="url(#mask-4)" points="88.131368 47.194592 89.829488 47.194592 89.829488 40.59164 88.131368 40.59164"></polygon>
                    <polygon id="Fill-8" fill="#FEFEFE" mask="url(#mask-4)" points="93.368616 40.5917248 95.217256 40.5917248 96.434136 44.7045248 97.641688 40.5917248 99.453016 40.5917248 97.227016 47.2324128 95.59504 47.2324128"></polygon>
                    <polygon id="Fill-9" fill="#FEFEFE" mask="url(#mask-4)" points="102.955426 40.5917248 107.501978 40.5917248 107.501978 42.0825088 104.634466 42.0825088 104.634466 43.1666768 107.21917 43.1666768 107.21917 44.5726608 104.634466 44.5726608 104.634466 45.7047408 107.539714 45.7047408 107.539714 47.1946768 102.955426 47.1946768"></polygon>
                    <path d="M113.833654,43.7990304 C114.409022,43.7990304 114.748646,43.4687344 114.748646,42.9408544 L114.748646,42.9217744 C114.748646,42.3557344 114.389942,42.0729264 113.824326,42.0729264 L112.994134,42.0729264 L112.994134,43.7990304 L113.833654,43.7990304 Z M111.305766,40.5918944 L113.899374,40.5918944 C114.786382,40.5918944 115.455878,40.8276384 115.880726,41.2618144 C116.248334,41.6294224 116.456094,42.1386464 116.456094,42.8085664 L116.456094,42.8556304 C116.456094,43.8367664 115.974854,44.4498704 115.27695,44.7988224 L116.635022,47.1948464 L114.720238,47.1948464 L113.597486,45.1477744 L112.994134,45.1477744 L112.994134,47.1948464 L111.305766,47.1948464 L111.305766,40.5918944 Z" id="Fill-10" fill="#FEFEFE" mask="url(#mask-4)"></path>
                    <path d="M119.713347,46.3173784 L120.619011,45.0818424 C121.156219,45.5253464 121.769747,45.8272344 122.410835,45.8272344 C122.864091,45.8272344 123.099411,45.6288024 123.099411,45.3459944 L123.099411,45.3366664 C123.099411,45.0720904 122.901827,44.9122424 122.128027,44.6383384 C120.883163,44.2139144 120.005483,43.7615064 120.005483,42.5632824 L120.005483,42.5348744 C120.005483,41.3370744 120.920899,40.4971304 122.363771,40.4971304 C123.250779,40.4971304 124.033483,40.7430504 124.722059,41.2993384 L123.863883,42.5632824 C123.411051,42.2143304 122.864091,41.9595064 122.326035,41.9595064 C121.939347,41.9595064 121.722259,42.1481864 121.722259,42.3932584 L121.722259,42.4030104 C121.722259,42.6951464 121.930019,42.8460904 122.769539,43.1577304 C124.024155,43.5630744 124.807283,44.0722984 124.807283,45.1950504 L124.807283,45.2137064 C124.807283,46.4967304 123.816819,47.2891864 122.401507,47.2891864 C121.420371,47.2891864 120.486723,46.9872984 119.713347,46.3173784" id="Fill-11" fill="#FEFEFE" mask="url(#mask-4)"></path>
                    <polygon id="Fill-12" fill="#FEFEFE" mask="url(#mask-4)" points="128.535176 47.194592 130.233296 47.194592 130.233296 40.59164 128.535176 40.59164"></polygon>
                    <polygon id="Fill-13" fill="#FEFEFE" mask="url(#mask-4)" points="135.554962 42.1199904 133.922986 42.1199904 133.922986 40.5918944 138.885058 40.5918944 138.885058 42.1199904 137.252658 42.1199904 137.252658 47.1948464 135.554962 47.1948464"></polygon>
                    <polygon id="Fill-14" fill="#FEFEFE" mask="url(#mask-4)" points="144.131846 44.7232232 142.009302 40.5917672 143.886774 40.5917672 144.990022 42.9784632 146.103022 40.5917672 147.95251 40.5917672 145.829966 44.7045672 145.829966 47.1947192 144.131846 47.1947192"></polygon>
                    <polygon id="Fill-15" fill="#FEFEFE" mask="url(#mask-4)" points="0 10.7941072 14.026344 10.7941072 14.026344 16.1755152 5.884272 16.1755152 5.884272 20.6601632 13.201664 20.6601632 13.201664 25.8609472 5.884272 25.8609472 5.884272 30.5253712 14.170504 30.5253712 14.170504 35.9072032 0 35.9072032"></polygon>
                    <path d="M27.7914616,26.5078016 L26.0331336,18.8304336 L24.2760776,26.5078016 L27.7914616,26.5078016 Z M22.9124936,10.6866656 L29.2979336,10.6866656 L36.0793896,35.9070336 L30.0157656,35.9070336 L28.9392296,31.3503056 L23.1283096,31.3503056 L22.0517736,35.9070336 L16.1687736,35.9070336 L22.9124936,10.6866656 Z" id="Fill-16" fill="#FEFEFE" mask="url(#mask-4)"></path>
                    <path d="M37.1869624,32.9994536 L40.0917864,28.2298776 C41.6342984,29.5557256 43.5359384,30.8841176 45.4736184,30.8841176 C46.9800904,30.8841176 47.7326904,29.9869336 47.7326904,28.9112456 C47.7326904,27.9411336 47.0525944,27.2593416 44.7201704,26.0064216 C40.6658824,23.9233096 38.1905704,21.9504376 38.1905704,18.0759256 L38.1905704,17.9707736 C38.1905704,13.4840056 41.4553704,10.4706376 46.2626824,10.4706376 C48.6667624,10.4706376 51.2845384,11.1528536 53.7250824,13.2707336 L50.7108664,17.8978456 C49.6339064,16.9654696 48.0201624,15.8177016 46.1901784,15.8177016 C44.9707544,15.8177016 44.1460744,16.5342616 44.1460744,17.5014056 L44.1460744,17.5391416 C44.1460744,18.5444456 44.8630584,19.2236936 47.7326904,20.8026696 C51.3561944,22.7403496 53.6886184,24.7857256 53.6886184,28.4804616 L53.6886184,28.6233496 C53.6886184,33.1448856 50.2444664,36.2303336 45.6525464,36.2303336 C42.7460264,36.2303336 39.8763944,35.3331496 37.1869624,32.9994536" id="Fill-17" fill="#FEFEFE" mask="url(#mask-4)"></path>
                    <polygon id="Fill-18" fill="#FEFEFE" mask="url(#mask-4)" points="102.54881 10.7941072 116.575154 10.7941072 116.575154 16.1755152 108.431386 16.1755152 108.431386 20.6601632 115.750898 20.6601632 115.750898 25.8609472 108.431386 25.8609472 108.431386 30.5253712 116.719314 30.5253712 116.719314 35.9072032 102.54881 35.9072032"></polygon>
                    <path d="M118.594962,32.9994536 L121.50021,28.2298776 C123.042722,29.5557256 124.943938,30.8841176 126.881618,30.8841176 C128.38809,30.8841176 129.141114,29.9869336 129.141114,28.9112456 C129.141114,27.9411336 128.459322,27.2593416 126.128594,26.0064216 C122.073882,23.9233096 119.59857,21.9504376 119.59857,18.0759256 L119.59857,17.9707736 C119.59857,13.4840056 122.86337,10.4706376 127.670682,10.4706376 C130.074762,10.4706376 132.692538,11.1528536 135.133082,13.2707336 L132.118866,17.8978456 C131.043602,16.9654696 129.428162,15.8177016 127.59945,15.8177016 C126.378754,15.8177016 125.554074,16.5342616 125.554074,17.5014056 L125.554074,17.5391416 C125.554074,18.5444456 126.271058,19.2236936 129.141114,20.8026696 C132.765466,22.7403496 135.096618,24.7857256 135.096618,28.4804616 L135.096618,28.6233496 C135.096618,33.1448856 131.652466,36.2303336 127.060546,36.2303336 C124.155722,36.2303336 121.28609,35.3331496 118.594962,32.9994536" id="Fill-19" fill="#FEFEFE" mask="url(#mask-4)"></path>
                    <polygon id="Fill-20" fill="#FEFEFE" mask="url(#mask-4)" points="141.952232 16.2485704 137.216152 16.2485704 137.216152 10.7942344 152.60608 10.7942344 152.60608 16.2485704 147.871272 16.2485704 147.871272 35.9069064 141.952232 35.9069064"></polygon>
                    <polygon id="Fill-21" fill="#F0C63C" mask="url(#mask-4)" points="61.9615792 46.380724 63.1407232 46.775044 78.6595472 0.394956 77.4816752 -0.000212"></polygon>
                    <polygon id="Fill-22" fill="#FEFEFE" mask="url(#mask-4)" points="60.5425784 35.9069912 62.7961384 35.9069912 66.4633144 24.9504072 66.4633144 16.2486552 69.3757704 16.2486552 71.1981224 10.8032232 71.1981224 10.7938952 55.8077704 10.7938952 55.8077704 16.2486552 60.5425784 16.2486552"></polygon>
                    <polygon id="Fill-23" fill="#FEFEFE" mask="url(#mask-4)" points="94.08454 10.7941072 91.572764 25.3250112 88.666668 10.7593392 83.573156 10.7593392 80.666636 25.3250112 78.159524 10.8131872 74.379988 22.1093952 77.365796 36.0148992 83.141948 36.0148992 86.048468 22.7403072 88.989756 36.0148992 94.765908 36.0148992 100.182932 10.7941072"></polygon>
                    <polygon id="Fill-24" fill="#FEFEFE" mask="url(#mask-4)" points="154.909884 11.3526848 154.223004 11.3526848 154.223004 10.7942768 156.237852 10.7942768 156.237852 11.3526848 155.54758 11.3526848 155.54758 13.0944768 154.909884 13.0944768"></polygon>
                    <polygon id="Fill-25" fill="#FEFEFE" mask="url(#mask-4)" points="156.515657 10.7941072 157.189393 10.7941072 157.738473 11.6849312 158.287129 10.7941072 158.961289 10.7941072 158.961289 13.0947312 158.326561 13.0947312 158.326561 11.7735472 157.738473 12.6741232 157.725329 12.6741232 157.140209 11.7765152 157.140209 13.0947312 156.515657 13.0947312"></polygon>
                </g>
            </g>
        </g>
    </g>
</svg>